<svg xmlns="http://www.w3.org/2000/svg" viewBox="0 0 271.56 52.18"><defs><style>.cls-1{fill:#44a5db;}</style></defs><title>logo-header</title><g id="Capa_2" data-name="Capa 2"><g id="Capa_1-2" data-name="Capa 1"><g id="Capa_2-2" data-name="Capa 2"><g id="Layer_1" data-name="Layer 1"><polygon class="cls-1" points="0 33.41 0 7.48 7.02 7.48 7.02 26.55 17.24 26.55 17.24 33.41 0 33.41"/><path class="cls-1" d="M35.09,33.41V28.23H28.68v5.19H21.82V14.34a6.84,6.84,0,0,1,6.81-6.87h6.32a7,7,0,0,1,7,7v19.1l-6.87-.15Zm0-19.07H28.68v7h6.41Z"/><path d="M60.57,33.41H47.76V27H60.57V23.8H54.32a7,7,0,0,1-7-6.87V14.49a7,7,0,0,1,7-7H66.37V14H54.32v2.75h6.26a7,7,0,0,1,7,6.87v2.75a7.1,7.1,0,0,1-7,7"/><rect x="72.47" y="7.48" width="7.02" height="26.09"/><path d="M150.13,33.41V28.23h-6.41v5.19h-6.87V14.34a6.84,6.84,0,0,1,6.81-6.87H150a7,7,0,0,1,7,7v19.1l-6.87-.15Zm0-19.07h-6.41v7h6.41Z"/><polygon class="cls-1" points="178.05 33.41 168.29 33.41 160.66 7.48 167.83 7.48 173.17 26.85 178.51 7.48 185.53 7.48 178.05 33.41"/><path class="cls-1" d="M202.62,33.41V28.23h-6.41v5.19h-7V14.34A6.84,6.84,0,0,1,196,7.47h6.32a7,7,0,0,1,7,7v19.1l-6.71-.15Zm0-19.07h-6.41v7h6.41Z"/><path class="cls-1" d="M222.3,33.41a7,7,0,0,1-7-6.87V14.34a7,7,0,0,1,7-7h10.37v6.87H222.3V26.39h10.37v7Z"/><path class="cls-1" d="M264.71,33.41V28.23H258.3v5.19h-6.87V14.34a6.84,6.84,0,0,1,6.81-6.87h6.32a7,7,0,0,1,7,7v19.1l-6.87-.15Zm0-19.07H258.3v7h6.41Z"/><polygon points="104.97 23.95 105.12 40.28 106.34 40.43 106.5 25.33 119.01 28.53 119.31 44.25 120.69 44.25 120.84 28.38 130.91 25.02 131.06 37.99 132.28 37.99 132.74 2.59 119.16 0 119.31 19.68 104.97 23.95"/><polygon points="113.36 31.13 113.21 48.21 111.99 48.21 111.83 32.34 98.26 35.85 97.95 52.18 96.58 52.18 96.27 35.7 86.2 32.19 86.05 47.45 84.68 47.15 84.22 4.73 98.56 8.24 98.41 26.7 113.36 31.13"/><path class="cls-1" d="M238,15.71h7V33.57h-7ZM243.66,13h-5.34l2.75-5.49h7Z"/></g></g></g></g></svg>