<svg xmlns="http://www.w3.org/2000/svg" viewBox="0 0 48.52 52.18"><defs><style>.cls-1{fill:#fff;}</style></defs><title>Recurso 2</title><g id="Capa_2" data-name="Capa 2"><g id="Layer_1" data-name="Layer 1"><polygon class="cls-1" points="20.75 23.95 20.9 40.28 22.12 40.43 22.28 25.33 34.79 28.53 35.09 44.25 36.47 44.25 36.62 28.38 46.69 25.02 46.84 37.99 48.06 37.99 48.52 2.59 34.94 0 35.09 19.68 20.75 23.95"/><polygon class="cls-1" points="29.14 31.13 28.99 48.21 27.77 48.21 27.62 32.34 14.04 35.85 13.73 52.18 12.36 52.18 12.05 35.7 1.98 32.19 1.83 47.45 0.46 47.15 0 4.73 14.34 8.24 14.19 26.7 29.14 31.13"/></g></g></svg>